HIERARCHY
ROOT Hips
{
  OFFSET -31.5692 30.0904 122.763
  CHANNELS 6 Xposition Yposition Zposition Zrotation Xrotation Yrotation
  JOINT LeftUpLeg
  {
    OFFSET 8.64259 1.95398 -2.38835
    CHANNELS 3 Zrotation Xrotation Yrotation
    JOINT LeftLeg
    {
      OFFSET 43.7702 0 0
      CHANNELS 3 Zrotation Xrotation Yrotation
      JOINT LeftFoot
      {
        OFFSET 40.6238 0 0
        CHANNELS 3 Zrotation Xrotation Yrotation
        JOINT LeftToeBase
        {
          OFFSET 12.7242 0 0
          CHANNELS 3 Zrotation Xrotation Yrotation
          End Site
          {
            OFFSET 0 0 0
          }
        }
      }
    }
  }
  JOINT RightUpLeg
  {
    OFFSET -8.2249 1.95398 -2.59336
    CHANNELS 3 Zrotation Xrotation Yrotation
    JOINT RightLeg
    {
      OFFSET 43.5653 0 0
      CHANNELS 3 Zrotation Xrotation Yrotation
      JOINT RightFoot
      {
        OFFSET 40.6238 0 0
        CHANNELS 3 Zrotation Xrotation Yrotation
        JOINT RightToeBase
        {
          OFFSET 12.7242 0 0
          CHANNELS 3 Zrotation Xrotation Yrotation
          End Site
          {
            OFFSET 0 0 0
          }
        }
      }
    }
  }
  JOINT Spine
  {
    OFFSET 0.165834 0.87714 6.61349
    CHANNELS 3 Zrotation Xrotation Yrotation
    JOINT Spine1
    {
      OFFSET 7.38963 1.71661e-005 0
      CHANNELS 3 Zrotation Xrotation Yrotation
      JOINT Spine2
      {
        OFFSET 11.9445 1.14441e-005 0
        CHANNELS 3 Zrotation Xrotation Yrotation
        JOINT Spine3
        {
          OFFSET 14.7254 4.19617e-005 0
          CHANNELS 3 Zrotation Xrotation Yrotation
          JOINT Spine4
          {
            OFFSET 10.9679 0 0
            CHANNELS 3 Zrotation Xrotation Yrotation
            JOINT RightShoulder
            {
              OFFSET 2.46616 -1.6653 3.69651
              CHANNELS 3 Zrotation Xrotation Yrotation
              JOINT RightArm
              {
                OFFSET 13.0012 0 0
                CHANNELS 3 Zrotation Xrotation Yrotation
                JOINT RightForeArm
                {
                  OFFSET 28.7848 1.62311e-005 0
                  CHANNELS 3 Zrotation Xrotation Yrotation
                  JOINT RightHand
                  {
                    OFFSET 26.5688 1.62095e-005 0
                    CHANNELS 3 Zrotation Xrotation Yrotation
                    End Site
                    {
                      OFFSET 0 0 0
                    }
                  }
                }
              }
            }
            JOINT LeftShoulder
            {
              OFFSET 2.38034 -1.29275 -3.7523
              CHANNELS 3 Zrotation Xrotation Yrotation
              JOINT LeftArm
              {
                OFFSET 16.3182 6.07031e-005 0
                CHANNELS 3 Zrotation Xrotation Yrotation
                JOINT LeftForeArm
                {
                  OFFSET 27.0901 0 0
                  CHANNELS 3 Zrotation Xrotation Yrotation
                  JOINT LeftHand
                  {
                    OFFSET 24.5451 1.51738e-005 0
                    CHANNELS 3 Zrotation Xrotation Yrotation
                    End Site
                    {
                      OFFSET 0 0 0
                    }
                  }
                }
              }
            }
            JOINT Neck
            {
              OFFSET 5.0226 -0.0266342 0
              CHANNELS 3 Zrotation Xrotation Yrotation
              JOINT Head
              {
                OFFSET 6.69364 2.86102e-005 0
                CHANNELS 3 Zrotation Xrotation Yrotation
                End Site
                {
                  OFFSET 0 0 0
                }
              }
            }
          }
        }
      }
    }
  }
}
MOTION
Frames:	12
Frame Time:	0.0416667
37.6456 31.3003 33.7667 -3.04264 -15.2831 -1.06997 -174.916 -0.522931 89.8974 -18.3862 28.6875 2.64918 84.6825 18.9465 4.66946 25.0683 -1.53981 -0.456054 174.841 -5.25029 92.3083 -8.73141 -17.2473 -1.35584 85.1944 -19.4799 -2.09436 50.2863 -9.81018 -2.10458 0.827348 7.58301 -90.18 11.7127 1.56113 -0.523726 0.0425874 1.53656 -0.591946 -22.5001 1.64634 -0.0302165 -2.48742 1.64633 -0.0302145 96.3757 -12.3412 -98.6138 2.73939 -3.3739 -14.8956 -23.5703 -16.6437 -66.9353 -71.14 -4.38892 -1.03791 -84.4037 -30.6456 84.2217 1.65044 -3.09072 -35.0874 59.0448 44.2376 -63.5662 -37.3716 55.1215 -104.754 27.8075 -0.644746 -1.12683 -2.113 -0.167883 1.66666 
37.7176 26.9902 34.3806 -1.87211 -14.9762 -1.11079 -174.831 -3.3746 90.4446 -18.2691 32.8262 3.32276 86.2553 20.6271 5.18235 24.2696 -4.63424 6.30107 175.96 -7.87122 92.6853 -9.11523 -15.6077 -3.1198 87.0811 -21.8596 -4.13918 49.6282 -9.41956 2.04404 0.757237 7.37331 -90.1585 12.131 1.43034 -0.474322 0.460756 1.40808 -0.536823 -22.0807 1.50675 -0.0224311 -2.06806 1.50675 -0.0224174 96.9258 -13.0694 -96.8293 4.06041 -5.81625 -10.7824 -20.8792 -10.6045 -72.5295 -86.1727 -3.67112 -2.62075 -84.0608 -30.9413 84.9374 2.43687 -0.928015 -29.4199 61.2415 37.912 -67.2342 -37.6079 55.7559 -105.64 34.8249 -1.24717 -1.76058 -4.04683 -0.417292 2.75936 
37.7466 23.5313 35.3996 -3.65087 -15.2255 -1.16656 -173.338 -5.11295 91.4574 -20.1047 35.0688 2.47942 86.0237 21.3593 7.22844 16.9123 -4.14085 -3.8224 176.01 -10.3698 92.542 -9.23188 -15.9856 -3.43679 87.3342 -21.5635 -2.51932 51.0817 -10.0446 1.76733 0.862816 7.20524 -90.2644 12.4692 1.58854 -0.711005 0.798962 1.55571 -0.78025 -21.7437 1.72876 -0.200572 -1.7311 1.72876 -0.2006 96.7635 -13.1905 -97.2382 3.8451 -9.16197 -6.48863 -23.2622 -8.99678 -77.2224 -83.8147 -4.23722 -1.90241 -84.1596 -33.0106 85.1167 6.01337 2.16728 -22.0646 69.5819 33.6864 -72.9467 -25.3387 52.4076 -120.608 40.3114 -0.789554 -1.65869 -6.86864 0.00360348 2.31422 
37.8261 20.6893 36.4136 -3.49142 -15.4866 -1.20687 -173.225 -7.65203 91.2265 -19.6713 35.8462 2.73799 85.6147 21.7482 8.57743 -3.4663 -7.33693 -12.8885 175.832 -11.9131 91.9966 -10.9889 -17.3449 -4.08345 87.9807 -21.7777 -2.57959 48.9927 -9.17235 -0.195574 0.782852 7.1369 -90.2524 12.605 1.43479 -0.671887 0.934613 1.40383 -0.734414 -21.6067 1.57037 -0.209524 -1.59406 1.57037 -0.209515 97.191 -12.5712 -96.2504 4.28918 -12.7704 -4.47872 -35.4495 -10.9047 -82.3644 -66.5541 -4.95662 -0.65179 -84.0797 -32.769 85.2261 6.73566 4.9259 -16.3822 63.2502 28.6638 -72.2423 -34.804 51.8265 -106.765 45.4801 -1.10959 -1.83424 -9.08045 -0.099143 1.13936 
37.7717 18.7325 37.3717 -3.02672 -14.6983 -0.495938 -172.941 -8.09904 91.9944 -19.4535 34.0352 2.89361 86.7307 21.2103 5.49535 8.78473 -5.7401 -6.78059 175.639 -11.9056 92.1804 -12.3063 -18.5972 -3.79844 87.245 -20.9735 -2.74261 47.5452 -8.54676 2.29728 0.768677 6.97446 -90.2789 12.9304 1.39247 -0.726176 1.25993 1.35916 -0.786748 -21.2809 1.54632 -0.274029 -1.26822 1.54632 -0.274021 96.7515 -13.0296 -97.3173 5.89842 -12.4787 0.499174 -28.1995 -6.05959 -83.6913 -85.2171 -3.7618 -2.76599 -83.8378 -32.7956 85.6807 5.51429 7.23138 -12.4458 67.8408 25.7001 -74.1359 -31.0968 50.8334 -110.646 49.2176 -1.89182 -3.01465 -10.4063 -0.160895 2.22726 
37.6587 17.3592 38.2285 -2.78556 -14.1727 -0.50991 -173.157 -8.26774 91.8934 -19.9034 34.7797 3.24966 85.726 20.6032 5.93047 15.186 -4.74434 -4.0081 175.276 -11.7634 91.6167 -13.4619 -20.3525 -3.9303 87.9117 -21.3088 -2.79664 45.0953 -7.47925 1.58152 0.745812 6.84859 -90.243 13.1814 1.36313 -0.65598 1.51094 1.33296 -0.715324 -21.0297 1.49725 -0.215891 -1.01708 1.49725 -0.215882 96.4371 -13.9343 -97.8786 7.3494 -15.261 3.96132 -29.5191 -5.38007 -85.2593 -89.0392 -5.68139 -1.16056 -84.3296 -33.8855 84.9509 5.3087 8.52625 -7.8425 69.1968 23.4193 -75.6849 -31.5438 49.5819 -108.406 50.3415 -1.94419 -2.34609 -11.1863 -0.530019 1.50681 
37.46 16.2876 38.882 -2.96326 -13.6334 -0.346238 -172.872 -8.60914 92.1165 -19.2011 31.504 2.88402 86.803 19.6762 2.09703 -7.78858 -9.23549 -13.4267 175.427 -12.0617 91.8661 -13.3098 -20.8402 -4.03287 86.7146 -20.4462 -3.04784 44.6726 -7.43841 6.29873 0.755179 6.77453 -90.2213 13.3294 1.39157 -0.618863 1.65906 1.36298 -0.679519 -20.8819 1.51321 -0.17194 -0.869277 1.51321 -0.171939 97.231 -12.3329 -96.211 11.5135 -18.846 4.08331 -34.7126 -6.06852 -86.3524 -85.2157 -7.48584 0.789789 -83.9087 -32.4794 85.4953 2.01737 9.94469 -4.67574 68.778 20.2704 -74.2815 -33.8582 49.8101 -104.843 51.0157 -2.22578 -2.52388 -10.8749 -0.681747 1.73338 
37.2865 15.3226 39.3523 -3.27734 -13.1676 -0.202303 -172.739 -8.84555 91.857 -18.9192 29.719 2.57197 85.5339 19.3442 3.55821 12.8668 -7.02103 -1.94802 175.621 -12.2424 92.089 -13.5857 -20.6464 -4.12102 87.123 -20.1972 -1.97824 42.9849 -6.70258 4.0848 0.778635 6.7186 -90.2641 13.4419 1.41687 -0.710166 1.7715 1.38424 -0.771837 -20.7695 1.56478 -0.251407 -0.756896 1.56478 -0.251418 96.7889 -13.4664 -97.0753 12.2047 -17.2644 6.96436 -34.6135 -4.0856 -88.3359 -86.0905 -6.5266 -0.379648 -84.4173 -32.5568 84.5515 0.282092 9.86135 -0.533244 75.0945 19.5382 -75.8147 -26.9293 47.6469 -112.262 51.7294 -1.78518 -2.39698 -11.4325 -0.325931 1.57897 
37.2203 14.1687 39.689 -2.49007 -12.9316 -0.0647057 -173.265 -9.49747 91.2113 -18.8788 29.1542 3.06976 84.4059 19.26 5.39349 8.35002 -11.0327 1.05635 175.342 -12.9758 92.0144 -13.2237 -20.6162 -3.95577 86.959 -20.1678 -2.11151 42.9685 -6.76071 5.72837 0.712065 6.68395 -90.2813 13.5105 1.2762 -0.727769 1.83996 1.24293 -0.783242 -20.6998 1.43591 -0.31051 -0.687142 1.43591 -0.310499 97.0957 -12.9063 -96.4117 12.9276 -14.5429 8.07 -36.6947 -3.06219 -90.2598 -84.9858 -7.13201 0.306215 -84.2238 -33.2773 85.0408 1.01854 10.7349 1.36495 78.7226 19.1007 -76.4838 -22.2162 44.7676 -116.962 52.3463 -1.65817 -2.09653 -11.7335 -0.374591 1.49332 
37.0622 12.912 39.9357 -2.16706 -12.9368 -0.102913 -173.28 -10.5779 91.1374 -18.3141 27.4669 3.14048 84.9289 18.9955 3.70054 5.90447 -13.4813 2.9089 175.416 -12.9656 92.0616 -14.8503 -21.042 -4.18685 86.0808 -19.2908 -2.24464 45.4029 -7.64184 2.80478 0.711303 6.64849 -90.3357 13.5822 1.24795 -0.834467 1.91152 1.21001 -0.888598 -20.6277 1.44103 -0.420771 -0.615086 1.44103 -0.420786 96.7048 -14.1635 -97.0771 12.5264 -17.9949 11.0071 -40.8047 -2.10315 -91.7844 -81.9075 -11.7421 6.118 -84.5597 -32.0177 84.1842 -1.28195 11.2618 3.59737 78.7715 18.8231 -75.5414 -21.7106 43.4773 -116.292 52.0601 -1.02243 -1.07067 -11.4575 -0.351595 0.716371 
37.0049 11.7495 40.0669 -1.89509 -13.2474 -0.130333 -172.95 -11.7732 91.2689 -17.9404 27.131 2.90648 85.4217 19.1245 2.9587 6.88557 -13.5119 3.8862 175.328 -13.8272 92.0925 -15.586 -21.6128 -4.41579 86.0455 -19.8926 -3.91912 44.3412 -7.18447 2.45777 0.720375 6.65023 -90.3335 13.5785 1.26698 -0.83251 1.90787 1.22912 -0.88748 -20.6315 1.4586 -0.413193 -0.618871 1.4586 -0.413188 96.5766 -14.6316 -97.2716 12.087 -16.2821 12.5444 -39.0558 -0.216682 -93.1798 -87.1166 -8.54171 1.46859 -85.0646 -31.8995 83.2071 -0.239129 11.4159 5.19664 77.8086 18.3583 -76.8762 -21.9719 42.1059 -114.994 51.7876 -1.52207 -1.72422 -10.769 -0.492007 1.72604 
37.0016 11.0126 40.0722 -0.842034 -13.6067 -0.0578239 -172.982 -12.715 91.288 -18.3523 26.4986 3.08735 86.595 19.6746 2.2833 11.8891 -10.2128 3.3141 175.015 -14.9441 92.018 -14.9989 -20.5758 -4.10424 86.306 -19.9933 -3.45044 44.8337 -7.36862 1.68636 0.599827 6.63563 -90.3367 13.6064 1.02618 -0.808218 1.9356 0.98962 -0.852595 -20.602 1.22163 -0.462402 -0.58936 1.22163 -0.462406 96.3901 -14.1561 -97.9294 12.9809 -16.8943 13.8951 -39.1643 0.0406236 -93.5632 -86.7488 -8.25835 1.17864 -85.362 -32.7736 82.8246 0.969436 11.6346 6.42941 77.2831 17.9226 -77.0584 -21.7471 41.3888 -115.038 51.1631 -1.06285 -0.685967 -10.3446 -0.586944 0.167897 
